<?xml version="1.0" encoding="UTF-8" standalone="no"?>
<!-- Created with Inkscape (http://www.inkscape.org/) -->

<svg
   width="512"
   height="512"
   viewBox="0 0 512 512"
   version="1.1"
   id="svg5"
   xmlns="http://www.w3.org/2000/svg"
   xmlns:svg="http://www.w3.org/2000/svg">
  <defs
     id="defs2" />
  <g
     id="layer1">
    <g
       id="g996"
       transform="matrix(1.4498336,0,0,1.4472916,-184.18471,-142.1995)">
      <path
         style="fill:#ca96b5;stroke-width:5.0108"
         d="m 253.38612,444.33634 c -32.42391,-8.9985 -52.93518,-20.72726 -75.22051,-43.01259 -25.43977,-25.43977 -38.09411,-50.92644 -45.65245,-91.94705 -7.12002,-38.64172 -0.66478,-86.47552 16.10641,-119.34977 50.78634,-99.549443 201.28755,-119.84249 280.84141,-37.86766 25.82028,26.60603 36.40858,47.98332 44.6421,90.1303 7.43659,38.06756 1.19801,85.92901 -15.5456,119.26353 -10.87533,21.65146 -46.17832,57.72174 -67.07612,68.53398 -39.65887,20.51895 -94.94763,26.22388 -138.09524,14.24926 z"
         id="path1026" />
      <path
         style="fill:#2ac9d7;stroke-width:5.0108"
         d="M 268.4185,444.84828 C 195.66731,424.03887 146.56629,372.0314 133.21769,301.64447 119.92543,231.55466 164.22657,152.51293 235.9576,118.33673 c 41.89288,-19.959824 92.54488,-20.131696 133.44476,-0.4528 43.64107,20.99782 67.07707,43.9794 86.92012,85.23479 14.98541,31.15597 17.53863,41.65555 17.53863,72.12394 0,56.2092 -27.71698,110.50748 -71.55407,140.17624 -43.96835,29.7576 -94.16624,40.79135 -133.88854,29.42938 z"
         id="path1024" />
      <path
         style="fill:#26a7d2;stroke-width:5.0108"
         d="M 268.4185,444.84828 C 195.66731,424.03887 146.56629,372.0314 133.21769,301.64447 119.92543,231.55466 164.22657,152.51293 235.9576,118.33673 c 41.89288,-19.959824 92.54488,-20.131696 133.44476,-0.4528 43.64107,20.99782 67.07707,43.9794 86.92012,85.23479 14.98541,31.15597 17.53863,41.65555 17.53863,72.12394 0,56.2092 -27.71698,110.50748 -71.55407,140.17624 -43.96835,29.7576 -94.16624,40.79135 -133.88854,29.42938 z m -36.54982,-142.5189 c -2.05156,-13.23176 -2.24967,-13.31261 -5.91939,-2.41566 -2.08822,6.20086 -5.80776,11.27429 -8.26562,11.27429 -2.53463,0 -2.44,3.79536 0.21862,8.76889 2.57812,4.82289 6.43318,13.27861 8.5668,18.79048 3.26227,8.42752 4.16905,7.41695 5.70075,-6.35323 1.00178,-9.00615 0.86625,-22.5353 -0.3012,-30.06477 z m -43.6229,29.31937 c 0,-5.28221 2.30141,-10.37116 5.11425,-11.30877 5.67456,-1.89152 -4.93892,-29.08908 -11.37775,-29.15606 -2.06695,-0.0215 -3.7581,11.2352 -3.7581,25.01488 0,13.77969 2.25486,25.05398 5.0108,25.05398 2.75594,0 5.0108,-4.32181 5.0108,-9.60403 z m 84.84439,-49.27282 c -0.30511,-16.90573 -0.87214,-17.68738 -5.65307,-7.79286 -2.92266,6.04869 -3.96825,14.50441 -2.32353,18.79048 5.0633,13.19474 8.33189,8.68821 7.9766,-10.99762 z m 136.857,6.2635 c -1.31708,-6.88985 -3.25925,-12.52699 -4.31594,-12.52699 -1.05669,0 -1.92125,5.63714 -1.92125,12.52699 0,6.88984 1.94217,12.52699 4.31594,12.52699 2.37377,0 3.23833,-5.63715 1.92125,-12.52699 z m -72.93426,-16.28509 c -1.26035,-4.82289 -2.29155,-0.87689 -2.29155,8.7689 0,9.64578 1.0312,13.59178 2.29155,8.76889 1.26035,-4.82289 1.26035,-12.7149 0,-17.53779 z m 111.64077,6.2635 c 0,-2.75594 -2.1858,-1.62851 -4.85734,2.5054 -2.67153,4.1339 -4.85733,9.77105 -4.85733,12.52698 0,2.75594 2.1858,1.62851 4.85733,-2.50539 2.67154,-4.13391 4.85734,-9.77105 4.85734,-12.52699 z M 229.41781,240.11823 c -7.65405,-7.65406 -13.30185,-2.00625 -9.05662,9.05662 2.50655,6.53198 4.67965,7.17923 9.13738,2.7215 4.45772,-4.45772 4.43851,-7.25886 -0.0808,-11.77812 z M 193.25657,213.4775 c 0,-4.13391 -2.25486,-7.5162 -5.01079,-7.5162 -2.75594,0 -5.0108,3.38229 -5.0108,7.5162 0,4.1339 2.25486,7.51619 5.0108,7.51619 2.75593,0 5.01079,-3.38229 5.01079,-7.51619 z"
         id="path1022" />
      <path
         style="fill:#a15691;stroke-width:5.0108"
         d="M 268.4185,444.84828 C 195.66731,424.03887 146.56629,372.0314 133.21769,301.64447 119.92543,231.55466 164.22657,152.51293 235.9576,118.33673 c 41.89288,-19.959824 92.54488,-20.131696 133.44476,-0.4528 43.64107,20.99782 67.07707,43.9794 86.92012,85.23479 14.98541,31.15597 17.53863,41.65555 17.53863,72.12394 0,56.2092 -27.71698,110.50748 -71.55407,140.17624 -43.96835,29.7576 -94.16624,40.79135 -133.88854,29.42938 z m -80.17272,-108.43 c 0,-12.75386 14.94028,-20.96818 26.43606,-14.53482 4.75173,2.6592 8.6395,9.23258 8.6395,14.60751 0,5.37494 2.25486,9.77261 5.0108,9.77261 2.78378,0 5.01079,-13.36213 5.01079,-30.06478 0,-32.55738 -2.58873,-37.08767 -10.02159,-17.53778 -6.64845,17.48676 -28.62323,17.50981 -33.00922,0.0346 -1.72446,-6.87079 -5.14971,-11.24744 -7.61166,-9.72586 -6.17302,3.81519 -5.6741,57.29385 0.53452,57.29385 2.75594,0 5.0108,-4.43038 5.0108,-9.8453 z m 87.89901,-60.30632 c 0.1446,-17.24432 -1.80773,-25.0535 -6.2635,-25.0535 -4.42777,0 -6.47358,7.91768 -6.47358,25.05398 0,16.70291 2.08776,25.05382 6.26349,25.0535 4.14757,-3.1e-4 6.33447,-8.46402 6.47359,-25.05398 z m 64.88775,13.78017 c 1.99746,-6.20086 3.06902,-13.52915 2.38125,-16.28509 -0.68777,-2.75594 -1.07177,-8.95679 -0.85334,-13.77969 0.21843,-4.82289 -2.845,-8.76889 -6.80763,-8.76889 -5.3052,0 -7.20477,6.6056 -7.20477,25.05398 0,26.17807 6.26365,33.09154 12.48449,13.77969 z m 31.76854,-1.10431 c -4.28193,-9.39782 -4.15218,-14.17139 0.53881,-19.82369 3.39837,-4.09479 4.72425,-9.79871 2.94637,-12.67537 -5.29279,-8.56392 -12.66264,-5.94743 -12.66264,4.49557 0,5.34923 -2.16983,11.0669 -4.82184,12.70593 -6.59527,4.0761 4.51988,27.67616 13.03491,27.67616 5.20516,0 5.40949,-2.62268 0.96439,-12.3786 z m 40.01876,-0.14839 c -4.29649,-9.42975 -4.25367,-15.7182 0.17317,-25.43405 5.16604,-11.33823 4.80701,-12.70362 -2.95379,-11.23326 -5.91206,1.1201 -9.36583,7.20528 -10.44039,18.39487 -2.01111,20.94211 1.6255,30.79943 11.36265,30.79943 6.25195,0 6.57472,-2.17571 1.85836,-12.52699 z m 29.97434,6.51403 c 12.27035,-12.27034 4.31418,-44.095 -11.02375,-44.095 -2.78377,0 -2.33837,2.67243 1.00216,6.01296 3.30713,3.30712 6.01296,11.87558 6.01296,19.04102 0,7.16544 -2.70583,15.7339 -6.01296,19.04102 -3.34053,3.34053 -3.78593,6.01296 -1.00216,6.01296 2.75594,0 7.71663,-2.70583 11.02375,-6.01296 z m -209.45125,-64.4339 c 0,-18.96436 -1.88085,-29.19806 -5.01079,-27.26365 -2.75594,1.70326 -5.0108,8.60091 -5.0108,15.3281 0,16.40365 -7.07193,15.41532 -20.04318,-2.80112 -16.94332,-23.79469 -25.05398,-19.73937 -25.05398,12.52699 0,15.15766 2.25486,27.55938 5.0108,27.55938 2.75594,0 5.0108,-5.63715 5.0108,-12.52699 0,-17.16579 11.89376,-15.97642 25.05397,2.5054 5.88721,8.26781 12.80532,15.03238 15.37359,15.03238 2.56828,0 4.66959,-13.66222 4.66959,-30.36049 z"
         id="path1020" />
      <path
         style="fill:#c21e90;stroke-width:5.0108"
         d="m 268.4185,442.68871 c 0,-2.08492 -9.33707,-6.70486 -20.74905,-10.26652 -45.59694,-14.23074 -86.2544,-54.88819 -100.48513,-100.48513 -3.56166,-11.41198 -8.18159,-20.74905 -10.26652,-20.74905 -2.08493,0 -3.79077,-15.78401 -3.79077,-35.07557 0,-19.29156 2.00391,-35.07557 4.45313,-35.07557 2.44923,0 5.87289,-7.56787 7.60813,-16.8175 7.15305,-38.12906 56.48388,-90.74791 97.29628,-103.78132 10.12976,-3.23493 20.55985,-7.86416 23.17799,-10.28718 7.50992,-6.9502 64.8373,-5.13326 80.90612,2.56425 8.00225,3.83335 23.15542,10.9261 33.67372,15.76167 27.53889,12.66044 59.20396,46.49277 72.89398,77.88309 6.515,14.93844 13.84328,31.0762 16.28509,35.8617 5.5219,10.82193 5.85669,60.25982 0.45177,66.71157 -2.19333,2.61814 -7.02233,13.77969 -10.7311,24.80344 -14.86091,44.17178 -62.20228,90.88732 -101.82935,100.48321 -7.60487,1.84155 -15.06623,5.35335 -16.5808,7.80398 -3.33715,5.39959 -72.31349,6.03383 -72.31349,0.66493 z M 378.656,345.66829 c 9.64578,0.19547 22.04641,0.97307 27.55695,1.72803 15.30583,2.09694 16.78068,-19.23421 1.52044,-21.9904 -10.18064,-1.83875 -108.69549,-0.80741 -121.7771,1.27487 -2.75594,0.43868 -11.21166,-0.85733 -18.79049,-2.88001 -12.92832,-3.45038 -13.77968,-2.68667 -13.77968,12.36098 v 16.03859 l 53.86605,-3.44372 c 29.62632,-1.89404 61.75805,-3.28379 71.40383,-3.08834 z m -190.41022,-9.25001 c 0,-12.75386 14.94028,-20.96818 26.43606,-14.53482 4.75173,2.6592 8.6395,9.23258 8.6395,14.60751 0,5.37494 2.25486,9.77261 5.0108,9.77261 2.78378,0 5.01079,-13.36213 5.01079,-30.06478 0,-32.55738 -2.58873,-37.08767 -10.02159,-17.53778 -6.64845,17.48676 -28.62323,17.50981 -33.00922,0.0346 -1.72446,-6.87079 -5.14971,-11.24744 -7.61166,-9.72586 -6.17302,3.81519 -5.6741,57.29385 0.53452,57.29385 2.75594,0 5.0108,-4.43038 5.0108,-9.8453 z m 87.89901,-60.30632 c 0.1446,-17.24432 -1.80773,-25.0535 -6.2635,-25.0535 -4.42777,0 -6.47358,7.91768 -6.47358,25.05398 0,16.70291 2.08776,25.05382 6.26349,25.0535 4.14757,-3.1e-4 6.33447,-8.46402 6.47359,-25.05398 z m 64.88775,13.78017 c 1.99746,-6.20086 3.06902,-13.52915 2.38125,-16.28509 -0.68777,-2.75594 -1.07177,-8.95679 -0.85334,-13.77969 0.21843,-4.82289 -2.845,-8.76889 -6.80763,-8.76889 -5.3052,0 -7.20477,6.6056 -7.20477,25.05398 0,26.17807 6.26365,33.09154 12.48449,13.77969 z m 31.76854,-1.10431 c -4.28193,-9.39782 -4.15218,-14.17139 0.53881,-19.82369 3.39837,-4.09479 4.72425,-9.79871 2.94637,-12.67537 -5.29279,-8.56392 -12.66264,-5.94743 -12.66264,4.49557 0,5.34923 -2.16983,11.0669 -4.82184,12.70593 -6.59527,4.0761 4.51988,27.67616 13.03491,27.67616 5.20516,0 5.40949,-2.62268 0.96439,-12.3786 z m 40.01876,-0.14839 c -4.29649,-9.42975 -4.25367,-15.7182 0.17317,-25.43405 5.16604,-11.33823 4.80701,-12.70362 -2.95379,-11.23326 -5.91206,1.1201 -9.36583,7.20528 -10.44039,18.39487 -2.01111,20.94211 1.6255,30.79943 11.36265,30.79943 6.25195,0 6.57472,-2.17571 1.85836,-12.52699 z m 29.97434,6.51403 c 12.27035,-12.27034 4.31418,-44.095 -11.02375,-44.095 -2.78377,0 -2.33837,2.67243 1.00216,6.01296 3.30713,3.30712 6.01296,11.87558 6.01296,19.04102 0,7.16544 -2.70583,15.7339 -6.01296,19.04102 -3.34053,3.34053 -3.78593,6.01296 -1.00216,6.01296 2.75594,0 7.71663,-2.70583 11.02375,-6.01296 z m -209.45125,-64.4339 c 0,-18.96436 -1.88085,-29.19806 -5.01079,-27.26365 -2.75594,1.70326 -5.0108,8.60091 -5.0108,15.3281 0,16.40365 -7.07193,15.41532 -20.04318,-2.80112 -16.94332,-23.79469 -25.05398,-19.73937 -25.05398,12.52699 0,15.15766 2.25486,27.55938 5.0108,27.55938 2.75594,0 5.0108,-5.63715 5.0108,-12.52699 0,-17.16579 11.89376,-15.97642 25.05397,2.5054 5.88721,8.26781 12.80532,15.03238 15.37359,15.03238 2.56828,0 4.66959,-13.66222 4.66959,-30.36049 z m 123.85179,-11.17108 c 4.18808,-4.18809 6.30094,-9.74039 4.69524,-12.33847 -4.2611,-6.8946 -60.87207,-4.57934 -69.83104,2.85594 -4.72533,3.92168 -8.29636,4.40282 -9.37345,1.26294 -0.95699,-2.78975 -7.37712,-5.70244 -14.26697,-6.47263 -10.4609,-1.16939 -12.7968,0.95843 -14.16288,12.90126 l -1.63589,14.30162 48.48015,-2.44799 c 34.07376,-1.72054 50.74294,-4.71077 56.09484,-10.06267 z"
         id="path1018" />
      <path
         style="fill:#2791b5;stroke-width:5.0108"
         d="m 268.4185,442.68871 c 0,-2.08492 -9.33707,-6.70486 -20.74905,-10.26652 -45.59694,-14.23074 -86.2544,-54.88819 -100.48513,-100.48513 -3.56166,-11.41198 -8.18159,-20.74905 -10.26652,-20.74905 -2.08493,0 -3.79077,-15.78401 -3.79077,-35.07557 0,-19.29156 2.00391,-35.07557 4.45313,-35.07557 2.44923,0 5.87289,-7.56787 7.60813,-16.8175 7.15305,-38.12906 56.48388,-90.74791 97.29628,-103.78132 10.12976,-3.23493 20.55985,-7.86416 23.17799,-10.28718 7.50992,-6.9502 64.8373,-5.13326 80.90612,2.56425 8.00225,3.83335 23.15542,10.9261 33.67372,15.76167 27.53889,12.66044 59.20396,46.49277 72.89398,77.88309 6.515,14.93844 13.84328,31.0762 16.28509,35.8617 5.5219,10.82193 5.85669,60.25982 0.45177,66.71157 -2.19333,2.61814 -7.02233,13.77969 -10.7311,24.80344 -14.86091,44.17178 -62.20228,90.88732 -101.82935,100.48321 -7.60487,1.84155 -15.06623,5.35335 -16.5808,7.80398 -3.33715,5.39959 -72.31349,6.03383 -72.31349,0.66493 z m -22.50863,-52.58067 c 7.1468,-8.9568 12.88205,-18.26254 12.745,-20.67942 -0.33848,-5.96876 -56.16299,-5.98399 -66.82321,-0.018 -7.87149,4.4051 -7.91139,5.66648 -0.51343,16.22855 7.72997,11.03608 22.92896,19.7741 35.54759,20.43657 3.32743,0.17467 11.89726,-7.01068 19.04405,-15.96747 z M 378.656,345.66829 c 9.64578,0.19547 22.04641,0.97307 27.55695,1.72803 15.30583,2.09694 16.78068,-19.23421 1.52044,-21.9904 -10.18064,-1.83875 -108.69549,-0.80741 -121.7771,1.27487 -2.75594,0.43868 -11.21166,-0.85733 -18.79049,-2.88001 -12.92832,-3.45038 -13.77968,-2.68667 -13.77968,12.36098 v 16.03859 l 53.86605,-3.44372 c 29.62632,-1.89404 61.75805,-3.28379 71.40383,-3.08834 z m -190.41022,-9.25001 c 0,-12.75386 14.94028,-20.96818 26.43606,-14.53482 4.75173,2.6592 8.6395,9.23258 8.6395,14.60751 0,5.37494 2.25486,9.77261 5.0108,9.77261 2.78378,0 5.01079,-13.36213 5.01079,-30.06478 0,-32.55738 -2.58873,-37.08767 -10.02159,-17.53778 -6.64845,17.48676 -28.62323,17.50981 -33.00922,0.0346 -1.72446,-6.87079 -5.14971,-11.24744 -7.61166,-9.72586 -6.17302,3.81519 -5.6741,57.29385 0.53452,57.29385 2.75594,0 5.0108,-4.43038 5.0108,-9.8453 z m 87.89901,-60.30632 c 0.1446,-17.24432 -1.80773,-25.0535 -6.2635,-25.0535 -4.42777,0 -6.47358,7.91768 -6.47358,25.05398 0,16.70291 2.08776,25.05382 6.26349,25.0535 4.14757,-3.1e-4 6.33447,-8.46402 6.47359,-25.05398 z m 64.88775,13.78017 c 1.99746,-6.20086 3.06902,-13.52915 2.38125,-16.28509 -0.68777,-2.75594 -1.07177,-8.95679 -0.85334,-13.77969 0.21843,-4.82289 -2.845,-8.76889 -6.80763,-8.76889 -5.3052,0 -7.20477,6.6056 -7.20477,25.05398 0,26.17807 6.26365,33.09154 12.48449,13.77969 z m 31.76854,-1.10431 c -4.28193,-9.39782 -4.15218,-14.17139 0.53881,-19.82369 3.39837,-4.09479 4.72425,-9.79871 2.94637,-12.67537 -5.29279,-8.56392 -12.66264,-5.94743 -12.66264,4.49557 0,5.34923 -2.16983,11.0669 -4.82184,12.70593 -6.59527,4.0761 4.51988,27.67616 13.03491,27.67616 5.20516,0 5.40949,-2.62268 0.96439,-12.3786 z m 40.01876,-0.14839 c -4.29649,-9.42975 -4.25367,-15.7182 0.17317,-25.43405 5.16604,-11.33823 4.80701,-12.70362 -2.95379,-11.23326 -5.91206,1.1201 -9.36583,7.20528 -10.44039,18.39487 -2.01111,20.94211 1.6255,30.79943 11.36265,30.79943 6.25195,0 6.57472,-2.17571 1.85836,-12.52699 z m 29.97434,6.51403 c 12.27035,-12.27034 4.31418,-44.095 -11.02375,-44.095 -2.78377,0 -2.33837,2.67243 1.00216,6.01296 3.30713,3.30712 6.01296,11.87558 6.01296,19.04102 0,7.16544 -2.70583,15.7339 -6.01296,19.04102 -3.34053,3.34053 -3.78593,6.01296 -1.00216,6.01296 2.75594,0 7.71663,-2.70583 11.02375,-6.01296 z m -209.45125,-64.4339 c 0,-18.96436 -1.88085,-29.19806 -5.01079,-27.26365 -2.75594,1.70326 -5.0108,8.60091 -5.0108,15.3281 0,16.40365 -7.07193,15.41532 -20.04318,-2.80112 -16.94332,-23.79469 -25.05398,-19.73937 -25.05398,12.52699 0,15.15766 2.25486,27.55938 5.0108,27.55938 2.75594,0 5.0108,-5.63715 5.0108,-12.52699 0,-17.16579 11.89376,-15.97642 25.05397,2.5054 5.88721,8.26781 12.80532,15.03238 15.37359,15.03238 2.56828,0 4.66959,-13.66222 4.66959,-30.36049 z m 126.25819,-12.88984 c 10.45447,-9.22873 10.56611,-9.20132 7.78365,1.91127 -2.32549,9.28756 -0.75374,11.27429 8.91937,11.27429 13.47196,0 47.3382,-32.91243 47.40556,-46.07043 0.0623,-12.17299 -20.25984,-33.19956 -35.54438,-36.77642 -11.02381,-2.57977 -16.30182,0.65504 -34.14682,20.92803 -18.03861,20.49294 -19.83385,24.42624 -12.34731,27.05237 14.04238,4.92581 0.57392,9.47815 -21.94378,7.417 -13.94255,-1.27622 -22.60725,0.50569 -26.75378,5.50195 -3.85537,4.64543 -7.30868,5.48674 -9.29948,2.26557 -1.74171,-2.81814 -8.70532,-5.74345 -15.47469,-6.50067 -10.21397,-1.14254 -12.58627,1.05639 -13.94384,12.92484 l -1.63589,14.30162 48.1874,-2.43321 c 37.53671,-1.8954 50.53173,-4.50267 58.79399,-11.79621 z"
         id="path1016" />
      <path
         style="fill:#b41c95;stroke-width:5.0108"
         d="m 268.4185,442.68871 c 0,-2.08492 -9.33707,-6.70486 -20.74905,-10.26652 -45.59694,-14.23074 -86.2544,-54.88819 -100.48513,-100.48513 -3.56166,-11.41198 -8.18159,-20.74905 -10.26652,-20.74905 -2.08493,0 -3.79077,-15.78401 -3.79077,-35.07557 0,-19.29156 2.00391,-35.07557 4.45313,-35.07557 2.44923,0 5.87289,-7.56787 7.60813,-16.8175 7.15305,-38.12906 56.48388,-90.74791 97.29628,-103.78132 10.12976,-3.23493 20.55985,-7.86416 23.17799,-10.28718 7.50992,-6.9502 64.8373,-5.13326 80.90612,2.56425 8.00225,3.83335 23.15542,10.9261 33.67372,15.76167 27.53889,12.66044 59.20396,46.49277 72.89398,77.88309 6.515,14.93844 13.84328,31.0762 16.28509,35.8617 5.5219,10.82193 5.85669,60.25982 0.45177,66.71157 -2.19333,2.61814 -7.02233,13.77969 -10.7311,24.80344 -14.86091,44.17178 -62.20228,90.88732 -101.82935,100.48321 -7.60487,1.84155 -15.06623,5.35335 -16.5808,7.80398 -3.33715,5.39959 -72.31349,6.03383 -72.31349,0.66493 z m -22.50863,-52.58067 c 7.1468,-8.9568 12.88205,-18.26254 12.745,-20.67942 -0.33848,-5.96876 -56.16299,-5.98399 -66.82321,-0.018 -7.87149,4.4051 -7.91139,5.66648 -0.51343,16.22855 7.72997,11.03608 22.92896,19.7741 35.54759,20.43657 3.32743,0.17467 11.89726,-7.01068 19.04405,-15.96747 z M 193.33806,335.8968 c 4.38354,-18.56897 19.16627,-18.4644 25.66629,0.18154 8.38161,24.04352 16.67292,15.44075 18.33578,-19.02455 1.25121,-25.93298 0.16536,-30.91976 -6.7326,-30.91976 -4.52342,0 -9.40372,4.50972 -10.84511,10.02159 -1.69595,6.48534 -6.8348,10.02159 -14.56327,10.02159 -8.60205,0 -11.94258,-2.8032 -11.94258,-10.02159 0,-6.68106 -3.34053,-10.02159 -10.02159,-10.02159 -8.87627,0 -10.02159,3.34053 -10.02159,29.22964 0,16.0763 1.55021,30.77986 3.44492,32.67456 6.01203,6.01204 13.71857,0.40232 16.67975,-12.14143 z m 185.31794,9.77149 c 9.64578,0.19547 22.04641,0.97307 27.55695,1.72803 15.30583,2.09694 16.78068,-19.23421 1.52044,-21.9904 -10.18064,-1.83875 -108.69549,-0.80741 -121.7771,1.27487 -2.75594,0.43868 -11.21166,-0.85733 -18.79049,-2.88001 -12.92832,-3.45038 -13.77968,-2.68667 -13.77968,12.36098 v 16.03859 l 53.86605,-3.44372 c 29.62632,-1.89404 61.75805,-3.28379 71.40383,-3.08834 z m -75.16193,-44.15337 c 0,-2.56426 -4.89681,-5.38283 -10.8818,-6.26349 -15.10693,-2.22291 -17.09004,-12.52677 -3.25601,-16.91752 l 11.46782,-3.63975 -11.19199,-4.14019 c -15.04048,-5.56383 -14.21829,-14.48471 1.33499,-14.48471 6.88985,0 12.52699,-2.38451 12.52699,-5.29891 0,-3.13517 -8.69587,-4.66973 -21.29588,-3.75809 -21.28914,1.54032 -21.29638,1.54774 -22.8647,23.40994 -0.86285,12.02802 -0.3699,24.99346 1.09543,28.81207 3.00093,7.82028 43.06515,9.94201 43.06515,2.28065 z m 38.63449,-5.3593 c 1.44139,-5.51187 5.19761,-10.02159 8.34715,-10.02159 3.14955,0 8.54281,4.50972 11.98503,10.02159 10.44779,16.72956 14.40529,11.43266 14.03903,-18.79048 l -0.34917,-28.81207 -23.52483,-1.51596 c -23.35822,-1.50522 -23.54845,-1.39011 -26.85816,16.25215 -3.84739,20.50837 0.51279,42.88795 8.35581,42.88795 2.96144,0 6.56376,-4.50971 8.00514,-10.02159 z m 3.75123,-30.39814 c -4.61165,-7.46183 0.73521,-11.51877 10.32912,-7.83724 4.42744,1.69897 6.64648,5.35982 4.93118,8.13522 -4.06163,6.57185 -11.09944,6.43443 -15.2603,-0.29799 z m 98.7747,32.12693 c 21.76053,-19.69301 5.21097,-51.83674 -26.68874,-51.83674 h -19.26657 v 30.06477 30.06477 h 18.39593 c 10.11776,0 22.51948,-3.73176 27.55938,-8.2928 z m -28.97105,-8.88057 c -4.10051,-10.68576 -0.26891,-29.37355 6.47777,-31.59388 9.6947,-3.19052 17.87094,17.03201 11.61354,28.72407 -6.28034,11.73493 -14.20694,12.99232 -18.09131,2.86981 z M 191.19892,248.55307 c 1.72924,-6.88985 5.10251,-12.52699 7.49614,-12.52699 2.39364,0 8.04567,5.63714 12.56007,12.52699 4.5144,6.88984 12.56598,12.52698 17.8924,12.52698 8.68689,0 9.53074,-3.1848 8.1926,-30.91977 -0.92369,-19.14499 -3.87704,-31.70728 -7.75529,-32.98773 -3.85341,-1.27225 -6.2635,2.59153 -6.2635,10.04145 0,19.4992 -6.37076,20.51024 -20.46026,3.24707 -19.19603,-23.51995 -29.64769,-17.50707 -29.64769,17.05642 0,14.78483 1.50324,28.38474 3.34053,30.22203 6.43162,6.43162 11.52737,3.23518 14.645,-9.18645 z m 168.4022,-30.72335 c 10.45447,-9.22873 10.56611,-9.20132 7.78365,1.91127 -2.32549,9.28756 -0.75374,11.27429 8.91937,11.27429 13.47196,0 47.3382,-32.91243 47.40556,-46.07043 0.0623,-12.17299 -20.25984,-33.19956 -35.54438,-36.77642 -11.02381,-2.57977 -16.30182,0.65504 -34.14682,20.92803 -18.03861,20.49294 -19.83385,24.42624 -12.34731,27.05237 14.04238,4.92581 0.57392,9.47815 -21.94378,7.417 -13.94255,-1.27622 -22.60725,0.50569 -26.75378,5.50195 -3.85537,4.64543 -7.30868,5.48674 -9.29948,2.26557 -1.74171,-2.81814 -8.70532,-5.74345 -15.47469,-6.50067 -10.21397,-1.14254 -12.58627,1.05639 -13.94384,12.92484 l -1.63589,14.30162 48.1874,-2.43321 c 37.53671,-1.8954 50.53173,-4.50267 58.79399,-11.79621 z"
         id="path1014" />
      <path
         style="fill:#a61aa4;stroke-width:5.0108"
         d="m 268.4185,442.68871 c 0,-2.08492 -9.33707,-6.70486 -20.74905,-10.26652 -45.59694,-14.23074 -86.2544,-54.88819 -100.48513,-100.48513 -3.56166,-11.41198 -8.18159,-20.74905 -10.26652,-20.74905 -2.08493,0 -3.79077,-15.78401 -3.79077,-35.07557 0,-19.29156 2.00391,-35.07557 4.45313,-35.07557 2.44923,0 5.87289,-7.56787 7.60813,-16.8175 7.15305,-38.12906 56.48388,-90.74791 97.29628,-103.78132 10.12976,-3.23493 20.55985,-7.86416 23.17799,-10.28718 7.50992,-6.9502 64.8373,-5.13326 80.90612,2.56425 8.00225,3.83335 23.15542,10.9261 33.67372,15.76167 27.53889,12.66044 59.20396,46.49277 72.89398,77.88309 6.515,14.93844 13.84328,31.0762 16.28509,35.8617 5.5219,10.82193 5.85669,60.25982 0.45177,66.71157 -2.19333,2.61814 -7.02233,13.77969 -10.7311,24.80344 -14.86091,44.17178 -62.20228,90.88732 -101.82935,100.48321 -7.60487,1.84155 -15.06623,5.35335 -16.5808,7.80398 -3.33715,5.39959 -72.31349,6.03383 -72.31349,0.66493 z m -7.24656,-15.81613 c -1.55496,-2.51599 8.43879,-17.73628 22.20834,-33.82287 13.76954,-16.08659 25.05557,-30.93949 25.08006,-33.00645 0.0711,-6.0012 -45.23087,-4.34232 -63.68888,2.33218 -13.45474,4.8653 -18.93636,4.78255 -27.25319,-0.41138 -7.46716,-4.66333 -11.94397,-4.96856 -15.83303,-1.07949 -2.98221,2.9822 -9.48094,5.42219 -14.44162,5.42219 -4.96069,0 -9.01944,1.99248 -9.01944,4.42773 0,7.89203 40.6452,41.40594 61.94844,51.07945 24.12205,10.95349 24.73358,11.10081 20.99932,5.05864 z M 193.33806,335.8968 c 4.38354,-18.56897 19.16627,-18.4644 25.66629,0.18154 8.38161,24.04352 16.67292,15.44075 18.33578,-19.02455 1.25121,-25.93298 0.16536,-30.91976 -6.7326,-30.91976 -4.52342,0 -9.40372,4.50972 -10.84511,10.02159 -1.69595,6.48534 -6.8348,10.02159 -14.56327,10.02159 -8.60205,0 -11.94258,-2.8032 -11.94258,-10.02159 0,-6.68106 -3.34053,-10.02159 -10.02159,-10.02159 -8.87627,0 -10.02159,3.34053 -10.02159,29.22964 0,16.0763 1.55021,30.77986 3.44492,32.67456 6.01203,6.01204 13.71857,0.40232 16.67975,-12.14143 z m 185.31794,9.77149 c 9.64578,0.19547 22.04641,0.97307 27.55695,1.72803 15.30583,2.09694 16.78068,-19.23421 1.52044,-21.9904 -10.18064,-1.83875 -108.69549,-0.80741 -121.7771,1.27487 -2.75594,0.43868 -11.21166,-0.85733 -18.79049,-2.88001 -12.92832,-3.45038 -13.77968,-2.68667 -13.77968,12.36098 v 16.03859 l 53.86605,-3.44372 c 29.62632,-1.89404 61.75805,-3.28379 71.40383,-3.08834 z m -75.16193,-44.15337 c 0,-2.56426 -4.89681,-5.38283 -10.8818,-6.26349 -15.10693,-2.22291 -17.09004,-12.52677 -3.25601,-16.91752 l 11.46782,-3.63975 -11.19199,-4.14019 c -15.04048,-5.56383 -14.21829,-14.48471 1.33499,-14.48471 6.88985,0 12.52699,-2.38451 12.52699,-5.29891 0,-3.13517 -8.69587,-4.66973 -21.29588,-3.75809 -21.28914,1.54032 -21.29638,1.54774 -22.8647,23.40994 -0.86285,12.02802 -0.3699,24.99346 1.09543,28.81207 3.00093,7.82028 43.06515,9.94201 43.06515,2.28065 z m 38.63449,-5.3593 c 1.44139,-5.51187 5.19761,-10.02159 8.34715,-10.02159 3.14955,0 8.54281,4.50972 11.98503,10.02159 10.44779,16.72956 14.40529,11.43266 14.03903,-18.79048 l -0.34917,-28.81207 -23.52483,-1.51596 c -23.35822,-1.50522 -23.54845,-1.39011 -26.85816,16.25215 -3.84739,20.50837 0.51279,42.88795 8.35581,42.88795 2.96144,0 6.56376,-4.50971 8.00514,-10.02159 z m 3.75123,-30.39814 c -4.61165,-7.46183 0.73521,-11.51877 10.32912,-7.83724 4.42744,1.69897 6.64648,5.35982 4.93118,8.13522 -4.06163,6.57185 -11.09944,6.43443 -15.2603,-0.29799 z m 98.7747,32.12693 c 21.76053,-19.69301 5.21097,-51.83674 -26.68874,-51.83674 h -19.26657 v 30.06477 30.06477 h 18.39593 c 10.11776,0 22.51948,-3.73176 27.55938,-8.2928 z m -28.97105,-8.88057 c -4.10051,-10.68576 -0.26891,-29.37355 6.47777,-31.59388 9.6947,-3.19052 17.87094,17.03201 11.61354,28.72407 -6.28034,11.73493 -14.20694,12.99232 -18.09131,2.86981 z M 191.19892,248.55307 c 1.72924,-6.88985 5.10251,-12.52699 7.49614,-12.52699 2.39364,0 8.04567,5.63714 12.56007,12.52699 4.5144,6.88984 12.56598,12.52698 17.8924,12.52698 8.68689,0 9.53074,-3.1848 8.1926,-30.91977 -0.92369,-19.14499 -3.87704,-31.70728 -7.75529,-32.98773 -3.85341,-1.27225 -6.2635,2.59153 -6.2635,10.04145 0,19.4992 -6.37076,20.51024 -20.46026,3.24707 -19.19603,-23.51995 -29.64769,-17.50707 -29.64769,17.05642 0,14.78483 1.50324,28.38474 3.34053,30.22203 6.43162,6.43162 11.52737,3.23518 14.645,-9.18645 z M 434.7117,222.54848 c 4.64923,-4.15102 11.03634,-5.95082 14.19356,-3.99954 9.99552,6.17757 -9.95531,-27.40918 -28.42518,-47.85312 -9.7562,-10.79894 -24.87405,-24.04443 -33.59524,-29.43442 -20.05798,-12.39651 -44.78558,-21.92324 -40.9983,-15.79528 1.58335,2.56192 -10.73024,19.98906 -27.36354,38.72697 3.22283,60.21855 -61.98878,34.88558 -64.26738,53.56443 l -1.63589,14.30162 47.99761,-2.42363 c 29.90588,-1.51008 51.17983,-5.01206 56.44011,-9.29081 7.35574,-5.98321 8.03547,-5.78009 5.28044,1.57795 -1.73915,4.64484 -0.47017,9.63775 2.81992,11.09535 10.80238,4.78575 60.91639,-2.7576 69.55389,-10.46952 z M 332.61932,202.53836 c 3.61717,-1.44747 7.93898,-1.26946 9.60402,0.3956 1.66505,1.66505 -1.29445,2.84935 -6.57666,2.63177 -5.8373,-0.24042 -7.02464,-1.42778 -3.02736,-3.02736 z"
         id="path1012" />
      <path
         style="fill:#8f17b0;stroke-width:5.0108"
         d="m 268.4185,442.68871 c 0,-2.08492 -9.33707,-6.70486 -20.74905,-10.26652 -45.59694,-14.23074 -86.2544,-54.88819 -100.48513,-100.48513 -3.56166,-11.41198 -8.18159,-20.74905 -10.26652,-20.74905 -2.08493,0 -3.79077,-15.78401 -3.79077,-35.07557 0,-19.29156 2.00391,-35.07557 4.45313,-35.07557 2.44923,0 5.87289,-7.56787 7.60813,-16.8175 7.15305,-38.12906 56.48388,-90.74791 97.29628,-103.78132 10.12976,-3.23493 20.55985,-7.86416 23.17799,-10.28718 7.50992,-6.9502 64.8373,-5.13326 80.90612,2.56425 8.00225,3.83335 23.15542,10.9261 33.67372,15.76167 27.53889,12.66044 59.20396,46.49277 72.89398,77.88309 6.515,14.93844 13.84328,31.0762 16.28509,35.8617 5.5219,10.82193 5.85669,60.25982 0.45177,66.71157 -2.19333,2.61814 -7.02233,13.77969 -10.7311,24.80344 -14.86091,44.17178 -62.20228,90.88732 -101.82935,100.48321 -7.60487,1.84155 -15.06623,5.35335 -16.5808,7.80398 -3.33715,5.39959 -72.31349,6.03383 -72.31349,0.66493 z m 38.01456,-10.54005 c -1.46479,-2.37008 9.67642,-17.94503 24.75825,-34.61099 15.08183,-16.66596 27.42151,-32.24663 27.42151,-34.62371 0,-6.90913 -95.00107,-7.35125 -113.86515,-0.52991 -13.42795,4.85561 -18.91738,4.77094 -27.2294,-0.42 -7.46716,-4.66332 -11.94397,-4.96855 -15.83303,-1.07948 -2.98221,2.9822 -9.48094,5.42219 -14.44162,5.42219 -4.96069,0 -9.01944,1.99248 -9.01944,4.42773 0,6.49689 36.98093,38.80619 55.20225,48.2288 23.52977,12.16771 78.51515,22.09835 73.00663,13.18537 z m -113.095,-96.25186 c 4.38354,-18.56897 19.16627,-18.4644 25.66629,0.18154 8.38161,24.04352 16.67292,15.44075 18.33578,-19.02455 1.25121,-25.93298 0.16536,-30.91976 -6.7326,-30.91976 -4.52342,0 -9.40372,4.50972 -10.84511,10.02159 -1.69595,6.48534 -6.8348,10.02159 -14.56327,10.02159 -8.60205,0 -11.94258,-2.8032 -11.94258,-10.02159 0,-6.68106 -3.34053,-10.02159 -10.02159,-10.02159 -8.87627,0 -10.02159,3.34053 -10.02159,29.22964 0,16.0763 1.55021,30.77986 3.44492,32.67456 6.01203,6.01204 13.71857,0.40232 16.67975,-12.14143 z m 185.31794,9.77149 c 9.64578,0.19547 22.04641,0.97307 27.55695,1.72803 15.30583,2.09694 16.78068,-19.23421 1.52044,-21.9904 -10.18064,-1.83875 -108.69549,-0.80741 -121.7771,1.27487 -2.75594,0.43868 -11.21166,-0.85733 -18.79049,-2.88001 -12.92832,-3.45038 -13.77968,-2.68667 -13.77968,12.36098 v 16.03859 l 53.86605,-3.44372 c 29.62632,-1.89404 61.75805,-3.28379 71.40383,-3.08834 z M 157.84187,307.42991 c -0.29081,-20.40995 -1.09359,-22.24033 -5.63411,-12.84614 -4.81696,9.96615 -2.22268,36.64742 3.56331,36.64742 1.32546,0 2.25732,-10.71058 2.0708,-23.80128 z m 145.6522,-5.91499 c 0,-2.56426 -4.89681,-5.38283 -10.8818,-6.26349 -15.10693,-2.22291 -17.09004,-12.52677 -3.25601,-16.91752 l 11.46782,-3.63975 -11.19199,-4.14019 c -15.04048,-5.56383 -14.21829,-14.48471 1.33499,-14.48471 6.88985,0 12.52699,-2.38451 12.52699,-5.29891 0,-3.13517 -8.69587,-4.66973 -21.29588,-3.75809 -21.28914,1.54032 -21.29638,1.54774 -22.8647,23.40994 -0.86285,12.02802 -0.3699,24.99346 1.09543,28.81207 3.00093,7.82028 43.06515,9.94201 43.06515,2.28065 z m 38.63449,-5.3593 c 1.44139,-5.51187 5.19761,-10.02159 8.34715,-10.02159 3.14955,0 8.54281,4.50972 11.98503,10.02159 10.44779,16.72956 14.40529,11.43266 14.03903,-18.79048 l -0.34917,-28.81207 -23.52483,-1.51596 c -23.35822,-1.50522 -23.54845,-1.39011 -26.85816,16.25215 -3.84739,20.50837 0.51279,42.88795 8.35581,42.88795 2.96144,0 6.56376,-4.50971 8.00514,-10.02159 z m 3.75123,-30.39814 c -4.61165,-7.46183 0.73521,-11.51877 10.32912,-7.83724 4.42744,1.69897 6.64648,5.35982 4.93118,8.13522 -4.06163,6.57185 -11.09944,6.43443 -15.2603,-0.29799 z m 98.7747,32.12693 c 21.76053,-19.69301 5.21097,-51.83674 -26.68874,-51.83674 h -19.26657 v 30.06477 30.06477 h 18.39593 c 10.11776,0 22.51948,-3.73176 27.55938,-8.2928 z m -28.97105,-8.88057 c -4.10051,-10.68576 -0.26891,-29.37355 6.47777,-31.59388 9.6947,-3.19052 17.87094,17.03201 11.61354,28.72407 -6.28034,11.73493 -14.20694,12.99232 -18.09131,2.86981 z M 191.19892,248.55307 c 1.72924,-6.88985 5.10251,-12.52699 7.49614,-12.52699 2.39364,0 8.04567,5.63714 12.56007,12.52699 4.5144,6.88984 12.56598,12.52698 17.8924,12.52698 8.68689,0 9.53074,-3.1848 8.1926,-30.91977 -0.92369,-19.14499 -3.87704,-31.70728 -7.75529,-32.98773 -3.85341,-1.27225 -6.2635,2.59153 -6.2635,10.04145 0,19.4992 -6.37076,20.51024 -20.46026,3.24707 -19.19603,-23.51995 -29.64769,-17.50707 -29.64769,17.05642 0,14.78483 1.50324,28.38474 3.34053,30.22203 6.43162,6.43162 11.52737,3.23518 14.645,-9.18645 z M 441.94006,199.1007 c -25.92578,-44.23899 -71.37712,-74.36135 -120.90821,-80.13052 -13.77968,-1.605 -22.69583,-1.82046 -19.81366,-0.47879 2.88218,1.34168 -6.40661,15.05425 -20.64173,30.47239 -24.49001,26.52524 -25.89535,29.51158 -26.12909,55.52426 l -0.24704,27.49128 47.20731,-2.38371 c 29.28273,-1.47862 50.41291,-4.99118 55.64981,-9.25091 7.34596,-5.97526 8.03634,-5.78212 5.31534,1.487 -4.41376,11.79128 7.75623,15.08983 41.56252,11.26508 17.13855,-1.93901 32.41778,-1.11434 38.01639,2.05188 14.83598,8.39028 14.82981,-10.72294 -0.0115,-36.04796 z"
         id="path1010" />
      <path
         style="fill:#922d8c;stroke-width:5.0108"
         d="m 268.4185,442.68871 c 0,-2.08492 -9.33707,-6.70486 -20.74905,-10.26652 -45.59694,-14.23074 -86.2544,-54.88819 -100.48513,-100.48513 -3.56166,-11.41198 -8.18159,-20.74905 -10.26652,-20.74905 -2.08493,0 -3.79077,-15.78401 -3.79077,-35.07557 0,-19.29156 2.00391,-35.07557 4.45313,-35.07557 2.44923,0 5.87289,-7.56787 7.60813,-16.8175 7.15305,-38.12906 56.48388,-90.74791 97.29628,-103.78132 10.12976,-3.23493 20.55985,-7.86416 23.17799,-10.28718 7.50992,-6.9502 64.8373,-5.13326 80.90612,2.56425 8.00225,3.83335 23.15542,10.9261 33.67372,15.76167 27.53889,12.66044 59.20396,46.49277 72.89398,77.88309 6.515,14.93844 13.84328,31.0762 16.28509,35.8617 5.5219,10.82193 5.85669,60.25982 0.45177,66.71157 -2.19333,2.61814 -7.02233,13.77969 -10.7311,24.80344 -14.86091,44.17178 -62.20228,90.88732 -101.82935,100.48321 -7.60487,1.84155 -15.06623,5.35335 -16.5808,7.80398 -3.33715,5.39959 -72.31349,6.03383 -72.31349,0.66493 z m 102.97588,-20.89796 c 26.9349,-11.86365 55.0311,-37.07905 69.56777,-62.43473 16.88834,-29.45759 20.34381,-43.15722 10.88561,-43.15722 -7.72211,0 -10.25237,2.2919 -27.63706,25.0335 l -9.56053,12.50651 2.50192,-13.08793 c 2.05,-10.72388 0.38312,-13.47097 -9.22819,-15.20854 -10.31763,-1.86526 -108.74793,-0.86581 -121.96761,1.23845 -2.75594,0.43868 -11.21166,-0.85733 -18.79049,-2.88001 -12.88608,-3.43911 -13.77968,-2.65798 -13.77968,12.04543 v 15.72303 l 43.84446,-0.94307 c 24.11445,-0.51868 50.59248,-2.8394 58.84008,-5.15717 15.58443,-4.37958 50.48895,-0.37626 44.93867,5.15416 -4.13711,4.12232 -23.44098,5.36871 -87.42806,5.64498 -28.90126,0.12476 -59.99624,2.92028 -69.09995,6.21222 -13.12815,4.7472 -18.70585,4.64039 -26.96305,-0.51631 -7.46716,-4.66332 -11.94397,-4.96855 -15.83303,-1.07948 -2.98221,2.9822 -9.48094,5.42219 -14.44162,5.42219 -4.96069,0 -9.01944,1.99248 -9.01944,4.42773 0,6.49689 36.98093,38.80619 55.20225,48.2288 36.47882,18.86392 98.66578,20.13836 137.96795,2.82746 z M 193.33806,335.8968 c 4.38354,-18.56897 19.16627,-18.4644 25.66629,0.18154 8.38161,24.04352 16.67292,15.44075 18.33578,-19.02455 1.25121,-25.93298 0.16536,-30.91976 -6.7326,-30.91976 -4.52342,0 -9.40372,4.50972 -10.84511,10.02159 -1.69595,6.48534 -6.8348,10.02159 -14.56327,10.02159 -8.60205,0 -11.94258,-2.8032 -11.94258,-10.02159 0,-6.68106 -3.34053,-10.02159 -10.02159,-10.02159 -8.87627,0 -10.02159,3.34053 -10.02159,29.22964 0,16.0763 1.55021,30.77986 3.44492,32.67456 6.01203,6.01204 13.71857,0.40232 16.67975,-12.14143 z m -31.0913,-69.80595 c 0.34154,-53.33212 -5.94123,-66.09636 -13.88761,-28.21444 -5.70896,27.21576 -4.2969,61.18486 3.56822,85.83859 2.75562,8.63767 3.67228,7.9457 6.63793,-5.0108 1.89244,-8.26781 3.5491,-31.94382 3.68146,-52.61335 z m 141.24731,35.42407 c 0,-2.56426 -4.89681,-5.38283 -10.8818,-6.26349 -15.10693,-2.22291 -17.09004,-12.52677 -3.25601,-16.91752 l 11.46782,-3.63975 -11.19199,-4.14019 c -15.04048,-5.56383 -14.21829,-14.48471 1.33499,-14.48471 6.88985,0 12.52699,-2.38451 12.52699,-5.29891 0,-3.13517 -8.69587,-4.66973 -21.29588,-3.75809 -21.28914,1.54032 -21.29638,1.54774 -22.8647,23.40994 -0.86285,12.02802 -0.3699,24.99346 1.09543,28.81207 3.00093,7.82028 43.06515,9.94201 43.06515,2.28065 z m 38.63449,-5.3593 c 1.44139,-5.51187 5.19761,-10.02159 8.34715,-10.02159 3.14955,0 8.54281,4.50972 11.98503,10.02159 10.44779,16.72956 14.40529,11.43266 14.03903,-18.79048 l -0.34917,-28.81207 -23.52483,-1.51596 c -23.35822,-1.50522 -23.54845,-1.39011 -26.85816,16.25215 -3.84739,20.50837 0.51279,42.88795 8.35581,42.88795 2.96144,0 6.56376,-4.50971 8.00514,-10.02159 z m 3.75123,-30.39814 c -4.61165,-7.46183 0.73521,-11.51877 10.32912,-7.83724 4.42744,1.69897 6.64648,5.35982 4.93118,8.13522 -4.06163,6.57185 -11.09944,6.43443 -15.2603,-0.29799 z m 98.7747,32.12693 c 21.76053,-19.69301 5.21097,-51.83674 -26.68874,-51.83674 h -19.26657 v 30.06477 30.06477 h 18.39593 c 10.11776,0 22.51948,-3.73176 27.55938,-8.2928 z m -28.97105,-8.88057 c -4.10051,-10.68576 -0.26891,-29.37355 6.47777,-31.59388 9.6947,-3.19052 17.87094,17.03201 11.61354,28.72407 -6.28034,11.73493 -14.20694,12.99232 -18.09131,2.86981 z M 191.19892,248.55307 c 1.72924,-6.88985 5.10251,-12.52699 7.49614,-12.52699 2.39364,0 8.04567,5.63714 12.56007,12.52699 4.5144,6.88984 12.56598,12.52698 17.8924,12.52698 8.68689,0 9.53074,-3.1848 8.1926,-30.91977 -0.92369,-19.14499 -3.87704,-31.70728 -7.75529,-32.98773 -3.85341,-1.27225 -6.2635,2.59153 -6.2635,10.04145 0,19.4992 -6.37076,20.51024 -20.46026,3.24707 -19.19603,-23.51995 -29.64769,-17.50707 -29.64769,17.05642 0,14.78483 1.50324,28.38474 3.34053,30.22203 6.43162,6.43162 11.52737,3.23518 14.645,-9.18645 z M 441.94006,199.1007 c -16.31078,-27.83224 -48.46325,-56.69471 -77.7031,-69.75214 -32.51646,-14.52065 -94.53898,-14.68358 -126.1378,-0.33136 -21.76739,9.88676 -59.87498,39.27511 -59.87498,46.17522 0,1.79769 6.65243,6.21317 14.78317,9.81219 11.09472,4.911 17.36965,5.15942 25.14971,0.99565 7.80436,-4.17676 13.74867,-3.91042 24.0505,1.0776 18.19952,53.8625 120.63907,50.44222 161.72775,46.01892 17.13855,-1.93901 32.41778,-1.11434 38.01639,2.05188 14.83598,8.39028 14.82981,-10.72294 -0.0115,-36.04796 z"
         id="path1008" />
      <path
         style="fill:#a02476;stroke-width:5.0108"
         d="m 284.70359,442.82928 c 10.33476,-1.08105 27.2462,-1.08105 37.58096,0 10.33477,1.08105 1.87905,1.96555 -18.79048,1.96555 -20.66953,0 -29.12525,-0.8845 -18.79048,-1.96555 z m -44.76673,-13.01609 c -29.5563,-10.89704 -60.84259,-37.28632 -76.42967,-64.46671 -16.4872,-28.74998 -21.15839,-49.42083 -7.1432,-31.60989 7.24462,9.20669 7.69753,3.9847 5.56984,-64.21972 -1.96903,-63.1184 -1.10989,-75.69866 5.73447,-83.96863 7.52449,-9.09178 9.02466,-9.21488 22.96053,-1.88405 10.91917,5.74393 17.82552,6.51491 25.80233,2.88043 20.82683,-9.48934 31.28352,-1.96889 32.94347,23.69294 l 1.50609,23.28312 46.64395,1.44462 c 43.26905,1.3401 47.37107,0.615 56.69341,-10.02159 5.67025,-6.46962 9.18782,-8.2104 8.07215,-3.99476 -3.88304,14.67239 8.59315,19.48248 43.24731,16.67362 37.76773,-3.06122 57.86328,5.40958 58.89484,24.8257 0.4722,8.88794 1.37126,8.09965 4.41794,-3.87361 2.924,-11.49115 3.84709,-7.3597 3.91847,17.53778 0.0606,21.14186 -1.15578,28.17467 -3.46667,20.04318 -3.5179,-12.37868 -3.59805,-12.34135 -6.77044,3.15307 -2.23966,10.93885 -6.82646,16.58764 -15.16935,18.68157 -6.57741,1.65083 -14.42763,8.12395 -17.44492,14.38471 l -5.48598,11.38321 -0.33914,-11.27429 c -0.30775,-10.23105 -2.79654,-11.27429 -26.89635,-11.27429 -14.60646,0 -28.69933,-1.93692 -31.31747,-4.30426 -6.20826,-5.61357 -73.1256,-0.91391 -69.54229,4.88401 1.5062,2.43707 -2.46797,4.39651 -8.83147,4.35431 -8.42767,-0.0559 -9.7178,-1.25025 -4.75021,-4.39763 4.74826,-3.00842 1.4304,-4.9501 -10.9228,-6.39226 -9.75844,-1.13924 -16.64027,-0.28774 -15.29298,1.89224 1.3473,2.17997 0.0617,3.96359 -2.85688,3.96359 -2.91859,0 -5.30652,6.76457 -5.30652,15.03239 0,8.26781 2.38793,15.03238 5.30652,15.03238 2.91858,0 3.81793,2.40858 1.99855,5.3524 -1.81938,2.94382 -6.57928,4.09708 -10.57756,2.56279 -4.05958,-1.5578 -5.91779,-0.60234 -4.20823,2.1638 4.38226,7.09065 -19.38965,6.14348 -26.59269,-1.05956 -4.67674,-4.67674 -7.34917,-4.67674 -12.02591,0 -3.30712,3.30713 -10.0717,6.01296 -15.03238,6.01296 -4.96069,0 -9.01944,2.06322 -9.01944,4.58494 0,9.46902 47.13793,45.59514 71.93773,55.13248 14.17503,5.45134 21.26307,9.85748 15.75119,9.79141 -5.51187,-0.0661 -17.20118,-2.76715 -25.97624,-6.0024 z m -46.5988,-93.91639 c 4.38354,-18.56897 19.16627,-18.4644 25.66629,0.18154 8.38161,24.04352 16.67292,15.44075 18.33578,-19.02455 1.25121,-25.93298 0.16536,-30.91976 -6.7326,-30.91976 -4.52342,0 -9.40372,4.50972 -10.84511,10.02159 -1.69595,6.48534 -6.8348,10.02159 -14.56327,10.02159 -8.60205,0 -11.94258,-2.8032 -11.94258,-10.02159 0,-6.68106 -3.34053,-10.02159 -10.02159,-10.02159 -8.87627,0 -10.02159,3.34053 -10.02159,29.22964 0,16.0763 1.55021,30.77986 3.44492,32.67456 6.01203,6.01204 13.71857,0.40232 16.67975,-12.14143 z m 18.37384,4.41646 c -1.59957,-3.99728 -2.78692,-2.80994 -3.02736,3.02735 -0.21756,5.28221 0.96673,8.24171 2.63177,6.57667 1.66505,-1.66504 1.84306,-5.98686 0.39561,-9.60402 z m 91.78217,-38.79834 c 0,-2.56426 -4.89681,-5.38283 -10.8818,-6.26349 -15.10693,-2.22291 -17.09004,-12.52677 -3.25601,-16.91752 l 11.46782,-3.63975 -11.19199,-4.14019 c -15.04048,-5.56383 -14.21829,-14.48471 1.33499,-14.48471 6.88985,0 12.52699,-2.38451 12.52699,-5.29891 0,-3.13517 -8.69587,-4.66973 -21.29588,-3.75809 -21.28914,1.54032 -21.29638,1.54774 -22.8647,23.40994 -0.86285,12.02802 -0.3699,24.99346 1.09543,28.81207 3.00093,7.82028 43.06515,9.94201 43.06515,2.28065 z m 38.63449,-5.3593 c 1.44139,-5.51187 5.19761,-10.02159 8.34715,-10.02159 3.14955,0 8.54281,4.50972 11.98503,10.02159 10.44779,16.72956 14.40529,11.43266 14.03903,-18.79048 l -0.34917,-28.81207 -23.52483,-1.51596 c -23.35822,-1.50522 -23.54845,-1.39011 -26.85816,16.25215 -3.84739,20.50837 0.51279,42.88795 8.35581,42.88795 2.96144,0 6.56376,-4.50971 8.00514,-10.02159 z m 3.75123,-30.39814 c -4.61165,-7.46183 0.73521,-11.51877 10.32912,-7.83724 4.42744,1.69897 6.64648,5.35982 4.93118,8.13522 -4.06163,6.57185 -11.09944,6.43443 -15.2603,-0.29799 z m 98.7747,32.12693 c 21.76053,-19.69301 5.21097,-51.83674 -26.68874,-51.83674 h -19.26657 v 30.06477 30.06477 h 18.39593 c 10.11776,0 22.51948,-3.73176 27.55938,-8.2928 z m -28.97105,-8.88057 c -4.10051,-10.68576 -0.26891,-29.37355 6.47777,-31.59388 9.6947,-3.19052 17.87094,17.03201 11.61354,28.72407 -6.28034,11.73493 -14.20694,12.99232 -18.09131,2.86981 z M 213.29975,278.91356 c 0,-6.7272 -2.01858,-13.47882 -4.48574,-15.0036 -5.89596,-3.64391 -11.02802,10.12841 -7.34788,19.71867 4.50603,11.74253 11.83362,8.82288 11.83362,-4.71507 z m -22.10083,-30.36049 c 1.72924,-6.88985 5.10251,-12.52699 7.49614,-12.52699 2.39364,0 8.04567,5.63714 12.56007,12.52699 4.5144,6.88984 12.56598,12.52698 17.8924,12.52698 8.68689,0 9.53074,-3.1848 8.1926,-30.91977 -0.92369,-19.14499 -3.87704,-31.70728 -7.75529,-32.98773 -3.85341,-1.27225 -6.2635,2.59153 -6.2635,10.04145 0,19.4992 -6.37076,20.51024 -20.46026,3.24707 -19.19603,-23.51995 -29.64769,-17.50707 -29.64769,17.05642 0,14.78483 1.50324,28.38474 3.34053,30.22203 6.43162,6.43162 11.52737,3.23518 14.645,-9.18645 z m -56.38723,27.55937 c 0,-20.66953 0.88449,-29.12525 1.96554,-18.79048 1.08105,10.33476 1.08105,27.2462 0,37.58096 -1.08105,10.33477 -1.96554,1.87905 -1.96554,-18.79048 z m 309.37372,-72.95572 c -16.04267,-30.24072 -54.7945,-64.43958 -87.08583,-76.85406 -16.64398,-6.39881 -21.95662,-10.10774 -14.71724,-10.27458 17.63131,-0.40634 54.16601,18.86751 76.08367,40.13787 19.88845,19.3011 42.3247,56.4364 39.3995,65.21201 -0.85185,2.55554 -7.00789,-5.64401 -13.6801,-18.22124 z M 284.70359,107.10598 c 10.33476,-1.08105 27.2462,-1.08105 37.58096,0 10.33477,1.08105 1.87905,1.96555 -18.79048,1.96555 -20.66953,0 -29.12525,-0.8845 -18.79048,-1.96555 z"
         id="path1006" />
      <path
         style="fill:#2f6499;stroke-width:5.0108"
         d="m 169.62811,355.27427 c -2.86756,-3.57791 -6.27366,-41.06516 -7.56911,-83.305 -2.00391,-65.34032 -1.16054,-78.24322 5.65221,-86.47403 7.47941,-9.03623 8.99103,-9.157 22.91762,-1.83105 10.91917,5.74393 17.82552,6.51491 25.80233,2.88043 20.82683,-9.48934 31.28352,-1.96889 32.94347,23.69294 l 1.50609,23.28312 65.14034,3.46003 c 35.82719,1.90302 67.3952,3.53214 70.15113,3.62026 2.75594,0.0881 15.76531,-1.13572 28.90971,-2.71965 29.01519,-3.49641 46.01336,5.7193 50.32648,27.28494 4.56452,22.82258 -4.6958,49.4733 -18.38423,52.90888 -6.39141,1.60415 -14.08945,8.03907 -17.10674,14.29983 l -5.48598,11.38321 -0.33914,-11.27429 c -0.30802,-10.24018 -2.79036,-11.27429 -27.06337,-11.27429 -14.69834,0 -28.25596,-1.53171 -30.12805,-3.4038 -1.87209,-1.8721 -28.74248,-3.10315 -59.71198,-2.73567 l -56.30817,0.66814 -1.52859,20.02335 c -1.07073,14.02576 -4.23627,20.88273 -10.56838,22.89246 -13.20745,4.19188 -25.484,-2.03532 -25.484,-12.9266 0,-12.89042 -6.56024,-11.95844 -12.59149,1.78879 -5.6753,12.93595 -23.38695,17.357 -31.08015,7.758 z m 23.70995,-19.37747 c 4.38354,-18.56897 19.16627,-18.4644 25.66629,0.18154 8.38161,24.04352 16.67292,15.44075 18.33578,-19.02455 1.25121,-25.93298 0.16536,-30.91976 -6.7326,-30.91976 -4.52342,0 -9.40372,4.50972 -10.84511,10.02159 -1.69595,6.48534 -6.8348,10.02159 -14.56327,10.02159 -8.60205,0 -11.94258,-2.8032 -11.94258,-10.02159 0,-6.68106 -3.34053,-10.02159 -10.02159,-10.02159 -8.87627,0 -10.02159,3.34053 -10.02159,29.22964 0,16.0763 1.55021,30.77986 3.44492,32.67456 6.01203,6.01204 13.71857,0.40232 16.67975,-12.14143 z m 110.15601,-34.38188 c 0,-2.56426 -4.89681,-5.38283 -10.8818,-6.26349 -15.10693,-2.22291 -17.09004,-12.52677 -3.25601,-16.91752 l 11.46782,-3.63975 -11.19199,-4.14019 c -15.04048,-5.56383 -14.21829,-14.48471 1.33499,-14.48471 6.88985,0 12.52699,-2.38451 12.52699,-5.29891 0,-3.13517 -8.69587,-4.66973 -21.29588,-3.75809 -21.28914,1.54032 -21.29638,1.54774 -22.8647,23.40994 -0.86285,12.02802 -0.3699,24.99346 1.09543,28.81207 3.00093,7.82028 43.06515,9.94201 43.06515,2.28065 z m 38.63449,-5.3593 c 1.44139,-5.51187 5.19761,-10.02159 8.34715,-10.02159 3.14955,0 8.54281,4.50972 11.98503,10.02159 10.44779,16.72956 14.40529,11.43266 14.03903,-18.79048 l -0.34917,-28.81207 -23.52483,-1.51596 c -23.35822,-1.50522 -23.54845,-1.39011 -26.85816,16.25215 -3.84739,20.50837 0.51279,42.88795 8.35581,42.88795 2.96144,0 6.56376,-4.50971 8.00514,-10.02159 z m 3.75123,-30.39814 c -4.61165,-7.46183 0.73521,-11.51877 10.32912,-7.83724 4.42744,1.69897 6.64648,5.35982 4.93118,8.13522 -4.06163,6.57185 -11.09944,6.43443 -15.2603,-0.29799 z m 98.7747,32.12693 c 21.76053,-19.69301 5.21097,-51.83674 -26.68874,-51.83674 h -19.26657 v 30.06477 30.06477 h 18.39593 c 10.11776,0 22.51948,-3.73176 27.55938,-8.2928 z m -28.97105,-8.88057 c -4.10051,-10.68576 -0.26891,-29.37355 6.47777,-31.59388 9.6947,-3.19052 17.87094,17.03201 11.61354,28.72407 -6.28034,11.73493 -14.20694,12.99232 -18.09131,2.86981 z M 213.29975,278.91356 c 0,-6.7272 -2.01858,-13.47882 -4.48574,-15.0036 -5.89596,-3.64391 -11.02802,10.12841 -7.34788,19.71867 4.50603,11.74253 11.83362,8.82288 11.83362,-4.71507 z m -22.10083,-30.36049 c 1.72924,-6.88985 5.10251,-12.52699 7.49614,-12.52699 2.39364,0 8.04567,5.63714 12.56007,12.52699 4.5144,6.88984 12.56598,12.52698 17.8924,12.52698 8.68689,0 9.53074,-3.1848 8.1926,-30.91977 -0.92369,-19.14499 -3.87704,-31.70728 -7.75529,-32.98773 -3.85341,-1.27225 -6.2635,2.59153 -6.2635,10.04145 0,19.4992 -6.37076,20.51024 -20.46026,3.24707 -19.19603,-23.51995 -29.64769,-17.50707 -29.64769,17.05642 0,14.78483 1.50324,28.38474 3.34053,30.22203 6.43162,6.43162 11.52737,3.23518 14.645,-9.18645 z"
         id="path1004" />
      <path
         style="fill:#4a5091;stroke-width:5.0108"
         d="m 169.62811,355.27427 c -2.86756,-3.57791 -6.27366,-41.06516 -7.56911,-83.305 -2.00391,-65.34032 -1.16054,-78.24322 5.65221,-86.47403 7.47941,-9.03623 8.99103,-9.157 22.91762,-1.83105 10.91917,5.74393 17.82552,6.51491 25.80233,2.88043 20.82683,-9.48934 31.28352,-1.96889 32.94347,23.69294 l 1.50609,23.28312 65.14034,3.46003 c 35.82719,1.90302 67.3952,3.53214 70.15113,3.62026 2.75594,0.0881 15.76531,-1.13572 28.90971,-2.71965 29.01519,-3.49641 46.01336,5.7193 50.32648,27.28494 4.56452,22.82258 -4.6958,49.4733 -18.38423,52.90888 -6.39141,1.60415 -14.08945,8.03907 -17.10674,14.29983 l -5.48598,11.38321 -0.33914,-11.27429 c -0.30802,-10.24018 -2.79036,-11.27429 -27.06337,-11.27429 -14.69834,0 -28.25596,-1.53171 -30.12805,-3.4038 -1.87209,-1.8721 -28.74248,-3.10315 -59.71198,-2.73567 l -56.30817,0.66814 -1.52859,20.02335 c -1.07073,14.02576 -4.23627,20.88273 -10.56838,22.89246 -13.20745,4.19188 -25.484,-2.03532 -25.484,-12.9266 0,-12.89042 -6.56024,-11.95844 -12.59149,1.78879 -5.6753,12.93595 -23.38695,17.357 -31.08015,7.758 z m 25.76967,-16.85982 c 4.02728,-16.04595 19.68329,-14.67222 22.04759,1.93454 1.22369,8.59512 4.40491,11.1271 12.52699,9.9704 9.00441,-1.28234 11.16037,-5.37964 12.46915,-23.69706 2.04417,-28.60976 -2.34472,-45.49909 -11.82346,-45.49909 -4.14961,0 -9.68799,5.63714 -12.3075,12.52698 -2.61952,6.88985 -8.15789,12.52699 -12.3075,12.52699 -4.14961,0 -8.95959,-5.63714 -10.68883,-12.52699 -1.96748,-7.83906 -6.69113,-12.52698 -12.62245,-12.52698 -8.39461,0 -9.47838,4.01059 -9.47838,35.07556 0,31.06498 1.08377,35.07557 9.47838,35.07557 5.99676,0 10.66396,-4.72374 12.70601,-12.85992 z m 116.90411,-36.03448 c 1.24484,-3.78111 -4.07883,-7.53341 -13.30667,-9.37897 -16.25901,-3.25181 -16.56943,-11.87776 -0.42743,-11.87776 7.83934,0 9.33127,-3.30859 8.47317,-18.79049 -1.04066,-18.77537 -1.05962,-18.79048 -23.59007,-18.79048 h -22.54858 l -1.53729,26.96209 c -2.20106,38.60358 -0.19773,41.50667 27.40117,39.70759 13.20749,-0.86096 24.36755,-4.28383 25.5357,-7.83198 z m 31.53062,-1.68457 5.61547,-10.4926 11.84366,11.12654 c 14.50343,13.62527 30.68089,10.34569 22.68305,-4.59843 -2.8243,-5.27724 -4.61268,-18.13399 -3.97419,-28.57055 1.06367,-17.38637 -0.17467,-19.36937 -14.7864,-23.67752 -8.77102,-2.58607 -21.73645,-3.24896 -28.81208,-1.47309 -11.9672,3.00357 -12.86477,5.26153 -12.86477,32.36302 0,16.0238 1.50324,30.63742 3.34053,32.47471 5.86793,5.86793 11.1876,3.62392 16.95473,-7.15208 z m 97.961,6.65778 c 7.52603,-5.02527 17.03522,-23.80587 17.03522,-33.64448 0,-22.59047 -43.55712,-42.22914 -59.12739,-26.65887 -6.30163,6.30163 -8.44339,55.02668 -2.67242,60.79765 4.48958,4.48958 37.85226,4.12118 44.76459,-0.49432 z m -23.05115,-31.24074 c 0,-10.467 2.13179,-15.15692 6.2635,-13.77969 3.44492,1.14831 6.26349,7.34917 6.26349,13.77969 0,6.43052 -2.81857,12.63138 -6.26349,13.77969 -4.13171,1.37723 -6.2635,-3.31269 -6.2635,-13.77969 z m -205.44261,2.80112 c 0,-6.7272 -2.01858,-13.47882 -4.48574,-15.0036 -5.89596,-3.64391 -11.02802,10.12841 -7.34788,19.71867 4.50603,11.74253 11.83362,8.82288 11.83362,-4.71507 z m -21.49505,-22.8443 c 1.44138,-5.51188 5.66067,-10.02159 9.37618,-10.02159 3.71551,0 9.16901,4.50971 12.11887,10.02159 6.4038,11.96561 22.74938,13.23316 27.02328,2.09558 5.1329,-13.37613 3.37275,-54.87875 -2.57989,-60.8314 -7.78544,-7.78544 -19.43259,-2.29291 -19.43259,9.16396 0,12.71662 -4.07801,11.95537 -18.32876,-3.42144 -18.25627,-19.69885 -24.06873,-13.58098 -25.73522,27.08744 -1.25123,30.53456 -0.24064,35.92745 6.7326,35.92745 4.51265,0 9.38414,-4.50972 10.82553,-10.02159 z"
         id="path1002" />
      <path
         style="fill:#692793;stroke-width:5.0108"
         d="m 169.62811,355.27427 c -2.86756,-3.57791 -6.27366,-41.06516 -7.56911,-83.305 -2.00391,-65.34032 -1.16054,-78.24322 5.65221,-86.47403 7.47941,-9.03623 8.99103,-9.157 22.91762,-1.83105 10.91917,5.74393 17.82552,6.51491 25.80233,2.88043 20.82683,-9.48934 31.28352,-1.96889 32.94347,23.69294 1.40196,21.67337 2.5454,23.42046 16.53847,25.26962 14.77113,1.95198 14.81467,2.043 2.5054,5.23671 -11.73265,3.0441 -12.52699,5.30117 -12.52699,35.59446 v 32.34426 h 27.55938 c 21.07597,0 27.55937,-1.75662 27.55937,-7.46698 0,-4.33967 -6.29585,-8.6288 -15.03238,-10.24102 l -15.03239,-2.77402 14.0663,-3.70608 c 9.46407,-2.49352 13.60358,-6.52032 12.65205,-12.30757 -0.77784,-4.73082 0.5651,-11.76213 2.98431,-15.62514 2.9729,-4.74715 1.40388,-9.21342 -4.84087,-13.77969 -8.02342,-5.86687 -4.3322,-6.63716 28.04655,-5.85285 27.56794,0.66779 31.08253,1.39234 13.4847,2.77995 -13.0907,1.03222 -23.85601,2.31692 -23.92291,2.85491 -5.27489,42.42036 -5.24241,54.64443 0.1625,61.15697 8.82841,10.63758 17.67985,9.23961 23.45568,-3.70453 l 4.98484,-11.17143 5.97877,11.17143 c 6.38803,11.93614 20.18719,14.64931 29.11244,5.72405 3.92267,-3.92266 6.38974,-3.92266 8.81407,0 1.8517,2.99607 13.25264,5.4474 25.33543,5.4474 24.60349,0 37.56938,-12.10523 37.56938,-35.07557 0,-23.08686 -12.93686,-34.97641 -39.1178,-35.95099 l -23.51714,-0.87542 21.70517,-1.93809 c 26.6569,-2.38023 43.43448,7.44359 47.50942,27.81832 4.56452,22.82258 -4.6958,49.4733 -18.38423,52.90888 -6.39141,1.60415 -14.08945,8.03907 -17.10674,14.29983 l -5.48598,11.38321 -0.33914,-11.27429 c -0.30802,-10.24018 -2.79036,-11.27429 -27.06337,-11.27429 -14.69834,0 -28.25596,-1.53171 -30.12805,-3.4038 -1.87209,-1.8721 -28.74248,-3.10315 -59.71198,-2.73567 l -56.30817,0.66814 -1.52859,20.02335 c -1.07073,14.02576 -4.23627,20.88273 -10.56838,22.89246 -10.85585,3.44551 -25.484,-1.45045 -25.484,-8.52936 0,-2.9522 3.1285,-2.49181 7.45238,1.09669 15.63591,12.97665 22.61239,2.34867 22.61239,-34.44778 0,-36.35494 -4.37319,-43.50064 -21.29588,-34.797 -6.91457,3.55629 -8.76889,2.41603 -8.76889,-5.39217 0,-12.49918 -8.03155,-17.89626 -11.84467,-7.95943 -3.41402,8.8968 1.04433,22.5198 7.36998,22.5198 2.46108,0 4.47469,2.25485 4.47469,5.01079 0,2.75594 -3.38228,5.0108 -7.51619,5.0108 -4.13391,0 -7.51619,-3.10619 -7.51619,-6.90265 0,-10.21265 -12.55026,-18.78928 -22.12057,-15.11681 -6.92488,2.65732 -8.10803,9.33236 -6.8986,38.92011 1.29992,31.80152 2.54994,35.7127 11.41386,35.7127 5.91739,0 12.63238,-5.5881 16.55851,-13.77969 6.45955,-13.4774 16.07918,-18.72353 16.07918,-8.76889 0,2.75594 -1.72016,5.0108 -3.82259,5.0108 -2.10243,0 -6.04843,5.07343 -8.7689,11.27428 -5.6753,12.93595 -23.38695,17.357 -31.08015,7.758 z m 26.39847,-100.03872 3.44534,-10.8553 8.53815,11.31927 c 5.70855,7.56801 12.56653,10.75037 20.6936,9.6026 11.54559,-1.63054 12.15546,-3.47649 12.15546,-36.79224 0,-32.14577 -0.90577,-35.2046 -10.84392,-36.62037 -7.58204,-1.08012 -11.90816,1.80835 -14.38196,9.6026 l -3.53805,11.14741 -8.53815,-11.31927 c -5.70855,-7.56801 -12.56654,-10.75037 -20.6936,-9.60261 -11.08626,1.56568 -12.28946,4.31183 -13.67885,31.22038 -0.83787,16.22704 -0.34492,32.57476 1.09543,36.32827 4.16152,10.84475 21.907,8.06661 25.74655,-4.03074 z m 186.23324,34.6878 c -1.24462,-3.46209 -1.10555,-13.84867 0.30901,-23.08129 1.71477,-11.19186 0.25986,-18.21552 -4.36536,-21.07407 -5.01296,-3.09817 -3.82744,-4.05324 4.27379,-3.44299 9.90781,0.74634 11.21113,3.59876 11.21113,24.53644 0,22.71996 -6.69484,36.22958 -11.42857,23.06191 z m 36.48254,-13.81091 c 0,-5.51187 2.25486,-10.02159 5.0108,-10.02159 2.75594,0 5.0108,4.50972 5.0108,10.02159 0,5.51187 -2.25486,10.02159 -5.0108,10.02159 -2.75594,0 -5.0108,-4.50972 -5.0108,-10.02159 z"
         id="path1000" />
      <path
         style="fill:#503275;stroke-width:5.0108"
         d="m 186.02749,354.18946 c 10.49543,-7.67445 15.25163,-6.83123 9.94052,1.76233 -1.81659,2.9393 -6.98307,5.34417 -11.48107,5.34417 -6.83955,0 -6.58739,-1.16321 1.54055,-7.1065 z m 35.33332,2.97731 c -1.40359,-2.27105 2.40934,-3.9622 8.47317,-3.7581 10.25068,0.34503 11.12856,-2.18081 12.49737,-35.95717 1.4834,-36.60441 0.30147,-39.04733 -17.75731,-36.7023 -3.44492,0.44734 -6.26349,-2.51096 -6.26349,-6.57399 0,-4.06304 5.07343,-8.10789 11.27429,-8.98855 10.4925,-1.49018 11.27429,-4.08795 11.27429,-37.46316 0,-19.72408 1.69114,-34.81129 3.75809,-33.52715 2.06696,1.28414 3.7581,12.34859 3.7581,24.58766 0,12.23908 1.94217,22.25286 4.31594,22.25286 5.90797,0 0.53341,26.65195 -6.31539,31.31747 -3.98163,2.71236 -3.91441,4.80384 0.24157,7.5162 3.16708,2.06695 6.54936,9.39524 7.51619,16.28508 1.63208,11.63062 3.72987,12.52699 29.31724,12.52699 21.07597,0 27.55937,-1.75662 27.55937,-7.46698 0,-4.33967 -6.29585,-8.6288 -15.03238,-10.24102 l -15.03239,-2.77402 14.0663,-3.70608 c 9.46407,-2.49352 13.60358,-6.52032 12.65205,-12.30757 -0.77784,-4.73082 0.5651,-11.76213 2.98431,-15.62514 2.91422,-4.65345 1.67293,-9.01668 -3.67833,-12.92962 -6.57941,-4.81098 -3.23752,-5.90055 18.02495,-5.87675 14.35602,0.016 19.901,0.91074 12.32217,1.98816 -7.57883,1.07742 -13.83442,2.37288 -13.90132,2.87881 -5.20151,39.33784 -5.16068,54.68461 0.1625,61.09869 8.79118,10.59273 18.76193,9.24715 22.66778,-3.05907 2.5379,-7.99622 4.72653,-9.11943 9.10656,-4.67347 4.3592,4.42482 3.32101,7.68966 -4.25586,13.38344 -7.65052,5.74913 -20.98869,7.15124 -56.37533,5.92616 l -46.35369,-1.60474 0.004,17.78832 c 0.004,18.16576 -7.12257,29.81423 -18.24034,29.81423 -3.42007,0 -7.3667,-1.85814 -8.77029,-4.12919 z m -21.94627,-21.8609 c 2.49677,-7.49032 13.88521,-11.61449 13.88521,-5.02834 0,2.69074 -3.5707,6.26246 -7.93489,7.93716 -4.88009,1.87266 -7.17087,0.75282 -5.95032,-2.90882 z M 378.656,309.425 c 6.88985,-3.64433 14.81044,-4.90654 17.60132,-2.8049 2.79089,2.10164 14.06517,4.73756 25.05398,5.8576 11.81703,1.20446 4.62607,2.3504 -17.60132,2.8049 -33.8972,0.69314 -36.35304,0.11896 -25.05398,-5.8576 z m 73.11113,-10.75454 c 4.78046,-7.29591 7.2971,-18.6818 6.03298,-27.29474 -1.19286,-8.12746 -0.32199,-13.63578 1.93529,-12.24071 7.13271,4.40826 4.43945,35.96946 -3.76999,44.17889 -11.64115,11.64115 -13.51232,9.57158 -4.19828,-4.64344 z m -253.49976,-2.35757 c 0,-2.66945 3.38228,-3.55563 7.51619,-1.9693 4.13391,1.58633 7.51619,3.77042 7.51619,4.85353 0,1.08311 -3.38228,1.9693 -7.51619,1.9693 -4.13391,0 -7.51619,-2.18409 -7.51619,-4.85353 z m 184.17489,-6.44954 c -3.51791,-9.64246 1.77279,-43.81568 6.78354,-43.81568 5.83727,0 5.81588,43.66933 -0.0231,47.27805 -2.46716,1.52479 -5.50933,-0.0331 -6.76038,-3.46237 z m -191.90221,-9.08172 c -1.81938,-2.94382 -6.23999,-4.22728 -9.82357,-2.85213 -3.58358,1.37515 -7.55694,-1.4818 -8.82968,-6.34877 -1.81219,-6.92981 0.14732,-8.37852 9.0347,-6.67959 8.25126,1.57733 12.26566,-0.71938 14.70808,-8.41477 1.84762,-5.82132 5.476,-9.27603 8.06308,-7.67713 2.71538,1.6782 1.66358,7.24757 -2.48815,13.175 -3.95556,5.64735 -5.99335,13.39133 -4.52844,17.20885 3.13439,8.16806 -1.35184,9.3295 -6.13602,1.58854 z m 228.20231,-4.66919 c 0,-5.51187 2.25486,-10.02159 5.0108,-10.02159 2.75594,0 5.0108,4.50972 5.0108,10.02159 0,5.51187 -2.25486,10.02159 -5.0108,10.02159 -2.75594,0 -5.0108,-4.50972 -5.0108,-10.02159 z M 267.47898,237.61393 c 3.61717,-1.44748 7.93898,-1.26946 9.60402,0.3956 1.66505,1.66505 -1.29445,2.84934 -6.57666,2.63177 -5.8373,-0.24042 -7.02464,-1.42778 -3.02736,-3.02736 z"
         id="path998" />
    </g>
  </g>
</svg>
